<svg width="16" height="16" viewBox="0 0 16 16" fill="none" xmlns="http://www.w3.org/2000/svg"><path d="M5.125 8.5H7.5v2.375c0 .069.056.125.125.125h.75a.125.125 0 00.125-.125V8.5h2.375A.125.125 0 0011 8.375v-.75a.125.125 0 00-.125-.125H8.5V5.125A.125.125 0 008.375 5h-.75a.125.125 0 00-.125.125V7.5H5.125A.125.125 0 005 7.625v.75c0 .069.056.125.125.125z" fill="#7379F8"/><path d="M13.75 1.75H2.25a.5.5 0 00-.5.5v11.5a.5.5 0 00.5.5h11.5a.5.5 0 00.5-.5V2.25a.5.5 0 00-.5-.5zm-.625 11.375H2.875V2.875h10.25v10.25z" fill="#7379F8"/></svg>