<svg xmlns="http://www.w3.org/2000/svg" width="15" height="15" viewBox="0 0 15 15" fill="none"><path d="M12.656 7.5a5.157 5.157 0 10-10.313 0 5.157 5.157 0 0010.313 0z" stroke="#FF7B1B" stroke-width=".768" stroke-miterlimit="10"/><path d="M9.073 5.86s.513.024.954.572c.263.326.339.716.344 1.068.004.32-.05.606-.13.777-.14.293-.48.863-1.204.863-.762 0-1.108-.498-1.489-1.065-.38-.568-.793-.722-1.22-.722" stroke="#FF7B1B" stroke-width=".672" stroke-miterlimit="10" stroke-linecap="round"/><path d="M4.219 7.324a.586.586 0 101.172 0 .586.586 0 00-1.172 0z" fill="#FF7B1B"/></svg>