<svg width="12" height="12" viewBox="0 0 12 12" fill="none" xmlns="http://www.w3.org/2000/svg"><path d="M6 .167A5.84 5.84 0 00.167 6 5.84 5.84 0 006 11.833 5.84 5.84 0 0011.834 6 5.84 5.84 0 006 .167zM6.584 9.5H5.417V8.333h1.167V9.5zm.569-2.85c-.114.093-.225.18-.312.268-.238.238-.257.454-.257.463v.077H5.417v-.097c0-.069.017-.687.598-1.268.114-.114.255-.23.404-.35.428-.347.709-.6.709-.949a1.128 1.128 0 00-2.256 0H3.705A2.298 2.298 0 016 2.5a2.298 2.298 0 012.295 2.295c0 .931-.688 1.487-1.142 1.856z" fill="#FF7B1B"/></svg>