<svg width="15" height="15" viewBox="0 0 15 15" fill="none" xmlns="http://www.w3.org/2000/svg"><g clip-path="url(#clip0)" fill="#FF7B1B"><path d="M7.144 12.656h.717l.787.9a.938.938 0 001.196.179l1.875-1.107a.938.938 0 00.422-1.11l-.385-1.14c.131-.196.248-.402.352-.614l1.181-.239a.937.937 0 00.755-.937V6.394a.937.937 0 00-.755-.938l-1.181-.239a5.381 5.381 0 00-.352-.618l.403-1.116a.936.936 0 00.028-.3.936.936 0 00-.468-.811L9.844 1.266a.938.938 0 00-1.177.192l-.81.886h-.718l-.787-.886a.937.937 0 00-1.196-.192L3.281 2.372a.938.938 0 00-.422 1.11l.385 1.14a5.32 5.32 0 00-.352.614l-1.181.24a.937.937 0 00-.755.937v2.212a.938.938 0 00.755.938l1.181.239c.104.213.221.42.352.618l-.385 1.135a.938.938 0 00.422 1.11l1.875 1.07a.938.938 0 001.177-.193l.81-.886zm-3.394-.839l.544-1.607a4.154 4.154 0 01-.736-1.27l-1.683-.334V6.394l1.664-.333c.173-.46.422-.888.736-1.266L3.75 3.183l1.875-1.106L6.75 3.352a4.172 4.172 0 011.467 0l1.158-1.275 1.875 1.106-.544 1.608c.32.376.568.806.736 1.27l1.683.333v2.212l-1.664.333a4.39 4.39 0 01-.736 1.266l.525 1.612-1.875 1.107-1.125-1.275a4.17 4.17 0 01-1.467 0l-1.158 1.275-1.875-1.107z"/><path d="M4.688 7.5A2.813 2.813 0 117.5 10.313 2.784 2.784 0 014.687 7.5zm4.687 0A1.833 1.833 0 007.5 5.625 1.833 1.833 0 005.625 7.5 1.833 1.833 0 007.5 9.375 1.833 1.833 0 009.375 7.5z"/></g><defs><clipPath id="clip0"><path fill="#fff" transform="rotate(90 7.5 7.5)" d="M0 0h15v15H0z"/></clipPath></defs></svg>