<svg width="56" height="56" viewBox="0 0 56 56" fill="none" xmlns="http://www.w3.org/2000/svg"><g clip-path="url(#clip0)" fill="#FF7B1B"><path d="M54.36 26.36A1.64 1.64 0 0052.72 28c0 13.63-11.09 24.719-24.72 24.719-13.629 0-24.718-11.09-24.718-24.719 0-13.63 11.089-24.719 24.719-24.719 4.156 0 8.199 1.032 11.808 2.999l-2.051 2.05a1.64 1.64 0 001.16 2.802h7.85a1.64 1.64 0 001.64-1.641V1.64a1.64 1.64 0 00-2.8-1.16l-3.393 3.392A27.89 27.89 0 0028.001 0C20.52 0 13.49 2.913 8.2 8.201 2.912 13.49 0 20.521 0 28.001c0 7.478 2.912 14.51 8.2 19.798C13.49 53.087 20.52 56 28 56s14.51-2.913 19.8-8.2C53.088 42.51 56 35.479 56 28a1.64 1.64 0 00-1.64-1.64z"/><path d="M38.544 26.36H29.64v-8.904a1.64 1.64 0 00-3.282 0V28c0 .906.735 1.64 1.641 1.64h10.544a1.64 1.64 0 000-3.28z"/></g><defs><clipPath id="clip0"><path fill="#fff" d="M0 0h56v56H0z"/></clipPath></defs></svg>