<svg width="9" height="13" viewBox="0 0 9 13" fill="none" xmlns="http://www.w3.org/2000/svg"><path d="M5.126 11.531V1.47a.594.594 0 00-.594-.594H4.47a.594.594 0 00-.594.594v10.063c0 .327.266.593.594.593h.062a.594.594 0 00.594-.594zm-3.125 0V1.47a.594.594 0 00-.594-.594h-.062a.594.594 0 00-.594.594v10.063c0 .327.266.593.594.593h.062a.594.594 0 00.594-.594zm6.25.001V1.469a.594.594 0 00-.594-.593h-.062A.594.594 0 007 1.469v10.063c0 .328.266.594.594.594h.062a.594.594 0 00.594-.594z" fill="#000"/></svg>