<svg width="19" height="13" viewBox="0 0 19 13" fill="none" xmlns="http://www.w3.org/2000/svg">
<path d="M12.3125 10.875C12.5611 10.875 12.7996 10.9738 12.9754 11.1496C13.1512 11.3254 13.25 11.5639 13.25 11.8125C13.25 12.0611 13.1512 12.2996 12.9754 12.4754C12.7996 12.6512 12.5611 12.75 12.3125 12.75H6.6875C6.43886 12.75 6.2004 12.6512 6.02459 12.4754C5.84877 12.2996 5.75 12.0611 5.75 11.8125C5.75 11.5639 5.84877 11.3254 6.02459 11.1496C6.2004 10.9738 6.43886 10.875 6.6875 10.875H12.3125ZM14.8125 5.5625C15.0611 5.5625 15.2996 5.66127 15.4754 5.83709C15.6512 6.0129 15.75 6.25136 15.75 6.5C15.75 6.74864 15.6512 6.9871 15.4754 7.16291C15.2996 7.33873 15.0611 7.4375 14.8125 7.4375H4.1875C3.93886 7.4375 3.7004 7.33873 3.52459 7.16291C3.34877 6.9871 3.25 6.74864 3.25 6.5C3.25 6.25136 3.34877 6.0129 3.52459 5.83709C3.7004 5.66127 3.93886 5.5625 4.1875 5.5625H14.8125ZM17.3125 0.25C17.5611 0.25 17.7996 0.348772 17.9754 0.524587C18.1512 0.700403 18.25 0.93886 18.25 1.1875C18.25 1.43614 18.1512 1.6746 17.9754 1.85041C17.7996 2.02623 17.5611 2.125 17.3125 2.125H1.6875C1.43886 2.125 1.2004 2.02623 1.02459 1.85041C0.848772 1.6746 0.75 1.43614 0.75 1.1875C0.75 0.93886 0.848772 0.700403 1.02459 0.524587C1.2004 0.348772 1.43886 0.25 1.6875 0.25H17.3125Z" fill="black"/>
</svg>
