<svg width="9" height="11" viewBox="0 0 9 11" fill="none" xmlns="http://www.w3.org/2000/svg">
<path d="M1.875 7.18726C1.875 7.33644 1.81574 7.47951 1.71025 7.585C1.60476 7.69049 1.46168 7.74976 1.3125 7.74976C1.16332 7.74976 1.02024 7.69049 0.914753 7.585C0.809263 7.47951 0.75 7.33644 0.75 7.18726L0.75 3.81226C0.75 3.66307 0.809264 3.52 0.914753 3.41451C1.02024 3.30902 1.16332 3.24976 1.3125 3.24976C1.46168 3.24976 1.60476 3.30902 1.71025 3.41451C1.81574 3.52 1.875 3.66307 1.875 3.81226L1.875 7.18726ZM5.0625 8.68726C5.0625 8.83644 5.00324 8.97951 4.89775 9.085C4.79226 9.19049 4.64918 9.24976 4.5 9.24976C4.35082 9.24976 4.20774 9.19049 4.10225 9.085C3.99676 8.97951 3.9375 8.83644 3.9375 8.68726L3.9375 2.31226C3.9375 2.16307 3.99676 2.02 4.10225 1.91451C4.20774 1.80902 4.35082 1.74976 4.5 1.74976C4.64918 1.74976 4.79226 1.80902 4.89775 1.91451C5.00324 2.02 5.0625 2.16307 5.0625 2.31226L5.0625 8.68726ZM8.25 10.1873C8.25 10.3364 8.19074 10.4795 8.08525 10.585C7.97976 10.6905 7.83668 10.7498 7.6875 10.7498C7.53832 10.7498 7.39524 10.6905 7.28975 10.585C7.18426 10.4795 7.125 10.3364 7.125 10.1873L7.125 0.812256C7.125 0.663072 7.18426 0.519997 7.28975 0.414508C7.39524 0.309019 7.53832 0.249756 7.6875 0.249756C7.83668 0.249756 7.97976 0.309019 8.08525 0.414508C8.19074 0.519997 8.25 0.663072 8.25 0.812256L8.25 10.1873Z" fill="black"/>
</svg>
