<svg width="9" height="13" viewBox="0 0 9 13" fill="none" xmlns="http://www.w3.org/2000/svg">
<path d="M5.12598 11.5315L5.12598 1.46899C5.12598 1.14108 4.86015 0.875244 4.53223 0.875244L4.46973 0.875244C4.14181 0.875244 3.87598 1.14108 3.87598 1.46899L3.87598 11.5315C3.87598 11.8594 4.14181 12.1252 4.46973 12.1252L4.53223 12.1252C4.86015 12.1252 5.12598 11.8594 5.12598 11.5315Z" fill="#FF7B1B"/>
<path d="M2.00098 11.5315L2.00098 1.46899C2.00098 1.14108 1.73514 0.875244 1.40723 0.875244L1.34473 0.875244C1.01681 0.875244 0.750976 1.14108 0.750976 1.46899L0.750975 11.5315C0.750975 11.8594 1.01681 12.1252 1.34473 12.1252L1.40723 12.1252C1.73514 12.1252 2.00098 11.8594 2.00098 11.5315Z" fill="#FF7B1B"/>
<path d="M8.25098 11.532L8.25098 1.46948C8.25098 1.14156 7.98515 0.875732 7.65723 0.875732L7.59473 0.875732C7.26681 0.875732 7.00098 1.14156 7.00098 1.46948L7.00098 11.532C7.00098 11.8599 7.26681 12.1257 7.59473 12.1257L7.65723 12.1257C7.98515 12.1257 8.25098 11.8599 8.25098 11.532Z" fill="#FF7B1B"/>
</svg>
