<svg width="8" height="5" viewBox="0 0 8 5" fill="none" xmlns="http://www.w3.org/2000/svg">
<path d="M7.01592 0.492506C7.11013 0.591233 7.16127 0.72334 7.15808 0.859769C7.1549 0.996197 7.09765 1.12577 6.99893 1.22L3.22537 4.82208C3.12965 4.91345 3.00242 4.96444 2.87009 4.96445C2.73777 4.96446 2.61052 4.9135 2.51479 4.82215L0.627941 3.0211C0.578671 2.97454 0.539086 2.9187 0.511461 2.8568C0.483836 2.79489 0.468715 2.72813 0.466968 2.66037C0.465221 2.5926 0.476881 2.52515 0.50128 2.4619C0.525678 2.39865 0.562333 2.34085 0.609139 2.29181C0.655945 2.24277 0.71198 2.20346 0.774024 2.17615C0.836067 2.14883 0.902896 2.13404 0.970673 2.13263C1.03845 2.13122 1.10584 2.14322 1.16896 2.16793C1.23209 2.19264 1.28971 2.22958 1.33852 2.27663L2.87005 3.73856L6.28836 0.475589C6.38708 0.381368 6.51918 0.330219 6.65561 0.333391C6.79204 0.336564 6.92168 0.393798 7.01592 0.492506Z" fill="#FF7B1B"/>
</svg>
