<svg xmlns="http://www.w3.org/2000/svg" width="15" height="15" viewBox="0 0 15 15" fill="none">
<path d="M12.6562 7.49976C12.6562 6.47995 12.3538 5.48304 11.7873 4.6351C11.2207 3.78716 10.4154 3.12627 9.47321 2.736C8.53103 2.34574 7.49428 2.24363 6.49407 2.44258C5.49385 2.64154 4.57509 3.13262 3.85398 3.85374C3.13287 4.57485 2.64178 5.49361 2.44283 6.49382C2.24387 7.49404 2.34598 8.53079 2.73625 9.47297C3.12651 10.4152 3.7874 11.2204 4.63534 11.787C5.48328 12.3536 6.48019 12.656 7.5 12.656C8.86752 12.656 10.179 12.1128 11.146 11.1458C12.113 10.1788 12.6562 8.86728 12.6562 7.49976Z" stroke="#FF7B1B" stroke-width="0.768293" stroke-miterlimit="10"/>
<path d="M9.07331 5.85913C9.07331 5.85913 9.58601 5.88374 10.0275 6.43247C10.2897 6.75796 10.3656 7.14819 10.3709 7.49976C10.375 7.81997 10.3219 8.10591 10.2405 8.277C10.101 8.56997 9.76062 9.14038 9.03669 9.14038C8.27497 9.14038 7.92898 8.64233 7.54841 8.07485C7.16784 7.50737 6.75476 7.35327 6.3279 7.35327" stroke="#FF7B1B" stroke-width="0.672256" stroke-miterlimit="10" stroke-linecap="round"/>
<path d="M4.21875 7.32373C4.21875 7.64734 4.48108 7.90967 4.80469 7.90967C5.12829 7.90967 5.39062 7.64734 5.39062 7.32373C5.39062 7.00013 5.12829 6.73779 4.80469 6.73779C4.48108 6.73779 4.21875 7.00013 4.21875 7.32373Z" fill="#FF7B1B"/>
</svg>