<svg width="16" height="16" viewBox="0 0 16 16" fill="none" xmlns="http://www.w3.org/2000/svg">
<path d="M13.75 1.75H2.25C1.97344 1.75 1.75 1.97344 1.75 2.25V13.75C1.75 14.0266 1.97344 14.25 2.25 14.25H13.75C14.0266 14.25 14.25 14.0266 14.25 13.75V2.25C14.25 1.97344 14.0266 1.75 13.75 1.75ZM13.125 13.125H2.875V2.875H13.125V13.125Z" fill="#7379F8"/>
<path d="M11.5491 6.15925C11.6433 6.25798 11.6945 6.39009 11.6913 6.52652C11.6881 6.66295 11.6309 6.79252 11.5321 6.88675L7.75857 10.4888C7.66285 10.5802 7.53562 10.6312 7.40329 10.6312C7.27097 10.6312 7.14372 10.5802 7.04799 10.4889L5.16114 8.68785C5.11187 8.64129 5.07229 8.58545 5.04466 8.52354C5.01704 8.46164 5.00192 8.39488 5.00017 8.32711C4.99842 8.25935 5.01008 8.1919 5.03448 8.12865C5.05888 8.0654 5.09554 8.0076 5.14234 7.95856C5.18915 7.90952 5.24518 7.87021 5.30723 7.8429C5.36927 7.81558 5.4361 7.80079 5.50388 7.79938C5.57165 7.79797 5.63904 7.80996 5.70217 7.83468C5.76529 7.85939 5.82291 7.89633 5.87172 7.94338L7.40325 9.40531L10.8216 6.14234C10.9203 6.04812 11.0524 5.99697 11.1888 6.00014C11.3252 6.00331 11.4549 6.06055 11.5491 6.15925Z" fill="#7379F8"/>
</svg>
