<svg width="12" height="12" viewBox="0 0 12 12" fill="none" xmlns="http://www.w3.org/2000/svg">
<path d="M6.00033 0.166748C2.78383 0.166748 0.166992 2.78358 0.166992 6.00008C0.166992 9.21658 2.78383 11.8334 6.00033 11.8334C9.21683 11.8334 11.8337 9.21658 11.8337 6.00008C11.8337 2.78358 9.21683 0.166748 6.00033 0.166748ZM6.58366 9.50008H5.41699V8.33342H6.58366V9.50008ZM7.15299 6.6505C7.03866 6.74266 6.92841 6.83075 6.84091 6.91825C6.60291 7.15567 6.58424 7.3715 6.58366 7.38083V7.45842H5.41699V7.361C5.41699 7.29217 5.43391 6.67442 6.01549 6.09283C6.12924 5.97908 6.27041 5.86358 6.41858 5.74342C6.84674 5.39633 7.12791 5.14316 7.12791 4.79433C7.12113 4.49964 6.99929 4.21931 6.78845 4.01332C6.57761 3.80732 6.29452 3.69203 5.99975 3.69211C5.70498 3.69218 5.42195 3.80762 5.21122 4.01373C5.00048 4.21983 4.87878 4.50022 4.87216 4.79492H3.70549C3.70549 3.52966 4.73508 2.50008 6.00033 2.50008C7.26558 2.50008 8.29516 3.52966 8.29516 4.79492C8.29516 5.7265 7.60741 6.28241 7.15299 6.6505Z" fill="#FF7B1B"/>
</svg>
