<svg width="15" height="15" viewBox="0 0 15 15" fill="none" xmlns="http://www.w3.org/2000/svg">
<g clip-path="url(#clip0)">
<path d="M7.14377 12.6563L7.50002 12.6563L7.86096 12.6563L8.64846 13.5563C8.79469 13.7222 8.99485 13.8311 9.21358 13.8637C9.43232 13.8963 9.65553 13.8505 9.84377 13.7345L11.7188 12.6282C11.8611 12.546 11.9794 12.4278 12.0617 12.2855C12.144 12.1431 12.1874 11.9817 12.1875 11.8173C12.1883 11.7154 12.1725 11.6141 12.1406 11.5173L11.7563 10.3782C11.887 10.1816 12.0044 9.97641 12.1078 9.76415L13.2891 9.52509C13.5049 9.48222 13.6988 9.36482 13.8367 9.19343C13.9747 9.02204 14.048 8.80758 14.0438 8.58759L14.0438 6.39384C14.048 6.17385 13.9747 5.95939 13.8367 5.788C13.6988 5.61661 13.5049 5.4992 13.2891 5.45634L12.1078 5.21728C12.0044 5.0035 11.887 4.79679 11.7563 4.59853L12.1594 3.4829C12.1849 3.38507 12.1944 3.28376 12.1875 3.1829C12.1874 3.0185 12.144 2.85703 12.0617 2.7147C11.9794 2.57236 11.8611 2.45416 11.7188 2.37196L9.84377 1.26571C9.65581 1.1563 9.43565 1.11564 9.22101 1.1507C9.00636 1.18577 8.81059 1.29436 8.66721 1.4579L7.85627 2.34384L7.13908 2.34384L6.35158 1.4579C6.20721 1.28974 6.00793 1.17818 5.78911 1.14299C5.57029 1.10781 5.34608 1.15129 5.15627 1.26571L3.28127 2.37196C3.1389 2.45416 3.02064 2.57236 2.93836 2.7147C2.85609 2.85703 2.81269 3.0185 2.81252 3.1829C2.81174 3.28478 2.82757 3.38611 2.8594 3.4829L3.24377 4.62196C3.11309 4.81862 2.99564 5.02376 2.89221 5.23603L1.71096 5.47509C1.49515 5.51795 1.30129 5.63536 1.16332 5.80675C1.02535 5.97814 0.952057 6.1926 0.956273 6.41259L0.956273 8.62509C0.952057 8.84507 1.02535 9.05953 1.16332 9.23093C1.30129 9.40232 1.49515 9.51972 1.71096 9.56259L2.89221 9.80165C2.99562 10.0154 3.11306 10.2221 3.24377 10.4204L2.8594 11.5548C2.82757 11.6516 2.81174 11.7529 2.81252 11.8548C2.81269 12.0192 2.85609 12.1806 2.93836 12.323C3.02064 12.4653 3.1389 12.5835 3.28127 12.6657L5.15627 13.7345C5.34424 13.8439 5.56439 13.8845 5.77904 13.8495C5.99368 13.8144 6.18946 13.7058 6.33283 13.5423L7.14377 12.6563ZM3.75002 11.8173L4.29377 10.2095C3.97497 9.83309 3.72577 9.40293 3.55783 8.93915L1.87502 8.60634L1.87502 6.39384L3.53908 6.06103C3.71178 5.60091 3.96056 5.17308 4.27502 4.7954L3.75002 3.1829L5.62502 2.07665L6.75002 3.35165C7.23524 3.26498 7.73199 3.26498 8.21721 3.35165L9.37502 2.07665L11.25 3.1829L10.7063 4.79071C11.0251 5.16709 11.2743 5.59725 11.4422 6.06103L13.125 6.39384L13.125 8.60634L11.461 8.93915C11.2883 9.39927 11.0395 9.8271 10.725 10.2048L11.25 11.8173L9.37502 12.9235L8.25002 11.6485C7.7648 11.7352 7.26806 11.7352 6.78283 11.6485L5.62502 12.9235L3.75002 11.8173Z" fill="black"/>
<path d="M4.6875 7.50025C4.6875 6.94399 4.85245 6.40022 5.16149 5.9377C5.47053 5.47519 5.90979 5.11471 6.4237 4.90183C6.93762 4.68896 7.50312 4.63327 8.04869 4.74179C8.59426 4.85031 9.0954 5.11817 9.48874 5.51151C9.88207 5.90484 10.1499 6.40598 10.2585 6.95155C10.367 7.49713 10.3113 8.06263 10.0984 8.57654C9.88554 9.09046 9.52505 9.52971 9.06254 9.83875C8.60003 10.1478 8.05626 10.3127 7.5 10.3127C7.12961 10.3165 6.76219 10.2463 6.41927 10.1063C6.07634 9.96631 5.7648 9.75928 5.50288 9.49736C5.24096 9.23545 5.03394 8.9239 4.89393 8.58098C4.75392 8.23805 4.68374 7.87063 4.6875 7.50025ZM9.375 7.50025C9.38077 7.25244 9.33622 7.00604 9.24403 6.77594C9.15185 6.54585 9.01395 6.33684 8.83868 6.16157C8.6634 5.98629 8.4544 5.84839 8.2243 5.75621C7.99421 5.66403 7.74781 5.61947 7.5 5.62525C7.25219 5.61947 7.00579 5.66403 6.77569 5.75621C6.5456 5.84839 6.33659 5.98629 6.16132 6.16157C5.98605 6.33684 5.84815 6.54585 5.75596 6.77594C5.66378 7.00604 5.61923 7.25244 5.625 7.50025C5.61923 7.74805 5.66378 7.99446 5.75596 8.22455C5.84815 8.45465 5.98605 8.66365 6.16132 8.83892C6.33659 9.0142 6.5456 9.1521 6.77569 9.24428C7.00579 9.33647 7.25219 9.38102 7.5 9.37525C7.74781 9.38102 7.99421 9.33647 8.2243 9.24428C8.4544 9.1521 8.6634 9.0142 8.83868 8.83892C9.01395 8.66365 9.15185 8.45465 9.24403 8.22455C9.33622 7.99446 9.38077 7.74805 9.375 7.50025Z" fill="black"/>
</g>
<defs>
<clipPath id="clip0">
<rect width="15" height="15" fill="white" transform="translate(15) rotate(90)"/>
</clipPath>
</defs>
</svg>
