<svg width="10" height="8" viewBox="0 0 10 8" fill="none" xmlns="http://www.w3.org/2000/svg">
<path d="M4.57528 2.33671C4.65477 2.42201 4.69804 2.53484 4.69598 2.65142C4.69393 2.768 4.6467 2.87923 4.56425 2.96168C4.4818 3.04413 4.37057 3.09136 4.25399 3.09341C4.13741 3.09547 4.02458 3.0522 3.93928 2.97271L2.89948 1.93411V7.15051C2.89948 7.26986 2.85207 7.38432 2.76768 7.46871C2.68328 7.5531 2.56883 7.60051 2.44948 7.60051C2.33013 7.60051 2.21567 7.5531 2.13128 7.46871C2.04689 7.38432 1.99948 7.26986 1.99948 7.15051V1.93951L0.968678 2.97031C0.927481 3.01452 0.877801 3.04998 0.822601 3.07458C0.767401 3.09917 0.707813 3.1124 0.647391 3.11346C0.58697 3.11453 0.526952 3.10342 0.470919 3.08078C0.414887 3.05815 0.363986 3.02446 0.321255 2.98173C0.278524 2.939 0.244837 2.8881 0.222204 2.83207C0.199572 2.77604 0.188457 2.71602 0.189523 2.6556C0.190589 2.59517 0.203814 2.53559 0.228409 2.48039C0.253005 2.42519 0.288466 2.37551 0.332678 2.33431L2.09968 0.56671C2.14185 0.514571 2.19515 0.472529 2.25567 0.443667C2.3162 0.414805 2.38242 0.399854 2.44948 0.39991C2.50906 0.399566 2.56811 0.411057 2.62322 0.433717C2.67832 0.456376 2.72837 0.489753 2.77048 0.53191L4.57528 2.33671Z" fill="black"/>
<path d="M5.42447 5.6631C5.38026 5.62191 5.3448 5.57222 5.32021 5.51702C5.29561 5.46183 5.28239 5.40224 5.28132 5.34182C5.28025 5.28139 5.29137 5.22138 5.314 5.16534C5.33663 5.10931 5.37032 5.05841 5.41305 5.01568C5.45578 4.97295 5.50668 4.93926 5.56272 4.91663C5.61875 4.894 5.67877 4.88288 5.73919 4.88395C5.79961 4.88501 5.8592 4.89824 5.9144 4.92283C5.9696 4.94743 6.01928 4.98289 6.06047 5.0271L7.10027 6.0663V0.849902C7.10027 0.730555 7.14769 0.616096 7.23208 0.531704C7.31647 0.447313 7.43093 0.399902 7.55027 0.399902C7.66962 0.399902 7.78408 0.447313 7.86847 0.531704C7.95286 0.616096 8.00027 0.730555 8.00027 0.849902V6.0603L9.03107 5.0295C9.07227 4.98529 9.12195 4.94983 9.17715 4.92523C9.23235 4.90064 9.29194 4.88741 9.35236 4.88635C9.41278 4.88528 9.4728 4.8964 9.52883 4.91903C9.58487 4.94166 9.63577 4.97535 9.6785 5.01808C9.72123 5.06081 9.75492 5.11171 9.77755 5.16774C9.80018 5.22378 9.8113 5.28379 9.81023 5.34422C9.80916 5.40464 9.79594 5.46423 9.77134 5.51943C9.74675 5.57463 9.71129 5.62431 9.66708 5.6655L7.90007 7.4331C7.85791 7.48524 7.80461 7.52728 7.74408 7.55615C7.68355 7.58501 7.61733 7.59996 7.55027 7.5999C7.49069 7.60025 7.43164 7.58876 7.37654 7.5661C7.32143 7.54344 7.27138 7.51006 7.22927 7.4679L5.42447 5.6631Z" fill="black"/>
</svg>
