<svg width="56" height="56" viewBox="0 0 56 56" fill="none" xmlns="http://www.w3.org/2000/svg">
<g clip-path="url(#clip0)">
<path d="M54.3601 26.3594C53.4541 26.3594 52.7195 27.0939 52.7195 28C52.7195 41.6299 41.6307 52.7186 28.0009 52.7186C14.371 52.7186 3.28232 41.6299 3.28232 28C3.28232 14.3701 14.371 3.28139 28.0009 3.28139C32.157 3.28139 36.1998 4.31334 39.8089 6.27967L37.7578 8.33077C37.2886 8.79999 37.1482 9.50556 37.4021 10.1187C37.6561 10.7318 38.2542 11.1315 38.9178 11.1315H46.7679C47.674 11.1315 48.4085 10.397 48.4085 9.4909V1.64078C48.4085 0.977205 48.0089 0.379036 47.3957 0.125069C46.7825 -0.129007 46.0769 0.0114293 45.6078 0.480755L42.2153 3.87322C37.9181 1.33606 33.0324 0.000273043 28.0008 0.000273043C20.5218 0.000273043 13.4903 2.9128 8.20187 8.20116C2.9134 13.4897 0.000976562 20.5211 0.000976562 28.0001C0.000976562 35.4791 2.9134 42.5105 8.20187 47.7989C13.4904 53.0875 20.5218 56.0001 28.0008 56.0001C35.4798 56.0001 42.5112 53.0875 47.7997 47.7989C53.0882 42.5105 56.0005 35.4791 56.0005 28.0001C56.0008 27.0939 55.2662 26.3594 54.3601 26.3594Z" fill="#FF7B1B"/>
<path d="M38.5436 26.3595H29.6406V17.4564C29.6406 16.5504 28.906 15.8158 28 15.8158C27.0939 15.8158 26.3594 16.5504 26.3594 17.4564V28.0001C26.3594 28.9062 27.0939 29.6407 28 29.6407H38.5436C39.4496 29.6407 40.1842 28.9062 40.1842 28.0001C40.1842 27.094 39.4496 26.3595 38.5436 26.3595Z" fill="#FF7B1B"/>
</g>
<defs>
<clipPath id="clip0">
<rect width="56" height="56" fill="white"/>
</clipPath>
</defs>
</svg>
