<svg width="165" height="20" viewBox="0 0 165 20" fill="none" xmlns="http://www.w3.org/2000/svg"><path d="M27.58 11.6h-8.14a2.58 2.58 0 001 1.58 3.44 3.44 0 002 .58 4 4 0 001.56-.25 3.56 3.56 0 001.21-.79l1.66 1.8a5.57 5.57 0 01-4.44 1.74 7.1 7.1 0 01-3.22-.71 5.22 5.22 0 01-2.16-2 5.48 5.48 0 01-.76-2.86 5.52 5.52 0 01.75-2.85 5.23 5.23 0 012.06-2 6.1 6.1 0 012.9-.66 6 6 0 012.86.68 4.84 4.84 0 012 1.95 5.79 5.79 0 01.73 3s.03.27-.01.79zm-7.3-3.46a2.58 2.58 0 00-.88 1.64h5.3a2.56 2.56 0 00-.88-1.63 2.6 2.6 0 00-1.76-.61 2.7 2.7 0 00-1.78.6zm16.38 7.44a3 3 0 01-1.13.51 5.79 5.79 0 01-1.41.17 4.2 4.2 0 01-3-1 3.74 3.74 0 01-1-2.88V8h-1.68V5.58h1.66V3h3.12v2.58h2.68V8h-2.68v4.38a1.5 1.5 0 00.35 1.05 1.298 1.298 0 001 .37 2 2 0 001.26-.4l.83 2.18z" fill="#201600"/><path d="M38.64 2.1H45a8.92 8.92 0 014 .9 6.48 6.48 0 012.72 2.45 6.85 6.85 0 011 3.68 6.85 6.85 0 01-1 3.68A6.48 6.48 0 0149 15.23a8.92 8.92 0 01-4 .87h-6.36v-14zm6.2 11.34a4.7 4.7 0 003.35-1.17 4.11 4.11 0 001.25-3.17 4.11 4.11 0 00-1.25-3.17 4.7 4.7 0 00-3.35-1.17h-3v8.68h3zm18.28-7.07A4.53 4.53 0 0164.46 10v6.1h-2.92v-1.34a3.47 3.47 0 01-3.28 1.5 5.12 5.12 0 01-2.15-.42 3.27 3.27 0 01-1.39-1.16 3 3 0 01-.48-1.68 2.81 2.81 0 011.13-2.36 5.8 5.8 0 013.49-.86h2.48a2 2 0 00-.62-1.57 2.7 2.7 0 00-1.86-.55 5.48 5.48 0 00-1.69.27 4.47 4.47 0 00-1.41.73l-1.12-2.18a7 7 0 012.11-1 9.36 9.36 0 012.53-.34 5.6 5.6 0 013.84 1.23zm-2.66 7.42a2 2 0 00.88-1.09v-1.1H59.2c-1.28 0-1.92.42-1.92 1.26a1.13 1.13 0 00.47 1c.383.25.834.372 1.29.35a2.66 2.66 0 001.42-.42zm13.76 1.79a3 3 0 01-1.13.51 5.79 5.79 0 01-1.41.17 4.2 4.2 0 01-3-1 3.74 3.74 0 01-1-2.88V8H66V5.58h1.66V3h3.12v2.58h2.68V8h-2.68v4.38a1.5 1.5 0 00.35 1.05 1.3 1.3 0 001 .37 2 2 0 001.26-.4l.83 2.18zm9.94-9.21A4.53 4.53 0 0185.5 10v6.1h-2.92v-1.34a3.47 3.47 0 01-3.28 1.5 5.12 5.12 0 01-2.15-.42 3.27 3.27 0 01-1.39-1.16 3 3 0 01-.48-1.68 2.81 2.81 0 011.13-2.36 5.8 5.8 0 013.49-.86h2.48a2 2 0 00-.62-1.57 2.7 2.7 0 00-1.86-.55 5.48 5.48 0 00-1.69.27 4.47 4.47 0 00-1.41.73l-1.12-2.18a7 7 0 012.11-1 9.36 9.36 0 012.53-.34 5.6 5.6 0 013.84 1.23zm-2.66 7.42a2 2 0 00.88-1.09v-1.1h-2.14c-1.28 0-1.92.42-1.92 1.26a1.13 1.13 0 00.47 1c.382.25.834.372 1.29.35a2.66 2.66 0 001.42-.42z" fill="#F57706"/><path d="M12.48 6.14l2.07-1.93A7.51 7.51 0 008 1.89 7.49 7.49 0 001.68 6a7.37 7.37 0 00.57 7.17 7.56 7.56 0 006.18 3.2 9.49 9.49 0 005.88-1.78V9.27h-3L9.5 9.3v1.87h2.31v1.67S9 14.32 6.46 13a4.3 4.3 0 01-2.18-3.7 4.4 4.4 0 012.28-4.17 5.1 5.1 0 015.92 1.01z" fill="#201600"/><path d="M91.44 2.1v15.99" stroke="#696869" stroke-miterlimit="10"/><path d="M102.21 6h-3.12l-.67 1.5h-.62l2.56-5.6h.58l2.57 5.6h-.63l-.67-1.5zm-.21-.44l-1.34-3-1.35 3H102zm2.44-2.23h.56V5.2h2.65V3.33h.56v4.21h-.56V5.68H105v1.86h-.57l.01-4.21zm8.11.38a1.572 1.572 0 01.45 1.22v2.61h-.54v-.66a1.368 1.368 0 01-.57.52 2 2 0 01-.88.18 1.7 1.7 0 01-1.12-.34 1.067 1.067 0 01-.42-.88 1.074 1.074 0 01.39-.87 1.9 1.9 0 011.24-.33h1.33v-.25a1.094 1.094 0 00-.3-.83 1.249 1.249 0 00-.89-.28 2.155 2.155 0 00-1.4.49l-.25-.42c.225-.186.483-.329.76-.42a3 3 0 011-.15 1.78 1.78 0 011.2.41zm-.64 3.2c.234-.15.413-.37.51-.63v-.69h-1.32c-.72 0-1.08.25-1.08.75a.7.7 0 00.28.58 1.3 1.3 0 00.79.21c.289.01.575-.067.82-.22zm6.03-3.58v4.21h-.56v-3.7h-2l-.06 1a7.65 7.65 0 01-.3 2 .892.892 0 01-.86.71 1.35 1.35 0 01-.4-.07v-.49a.68.68 0 00.2 0 .52.52 0 00.49-.31c.121-.21.206-.44.25-.68 0-.3.07-.69.09-1.18l.07-1.51 3.08.02zm1.62 0h.57v3.35l2.81-3.35h.5v4.21h-.57V4.2l-2.8 3.34h-.51V3.33zm8.16 2.38a.88.88 0 01.24.62.997.997 0 01-.25.66 1.609 1.609 0 01-.69.44 2.59 2.59 0 01-1 .16 3.358 3.358 0 01-.89-.13 2.326 2.326 0 01-.77-.39l.19-.43c.201.152.428.267.67.34.253.079.515.12.78.12a1.78 1.78 0 001-.22.67.67 0 00.38-.6.596.596 0 00-.31-.52 1.62 1.62 0 00-.83-.19h-.72v-.41h.69c.273.023.547-.032.79-.16a.558.558 0 00.29-.49.6.6 0 00-.33-.53 1.709 1.709 0 00-.84-.19 3 3 0 00-1.35.35l-.16-.44a3.413 3.413 0 011.56-.4c.296-.002.59.045.87.14.233.081.442.219.61.4a.872.872 0 01.22.59.8.8 0 01-.22.57c-.162.176-.37.304-.6.37.25.05.482.168.67.34zm7.4-2.38v4.21h-.57v-3.7h-2.64v3.7h-.57V3.33h3.78zm4.88.24c.315.175.575.435.75.75.177.346.263.731.25 1.12.007.39-.086.776-.27 1.12a1.93 1.93 0 01-.75.75 2.16 2.16 0 01-1.08.27 2.001 2.001 0 01-.92-.21 1.827 1.827 0 01-.68-.62v2.34h-.56V3.33h.54v.83c.167-.269.402-.49.68-.64.292-.146.614-.222.94-.22a2.16 2.16 0 011.1.27zm-.32 3.3c.241-.135.439-.336.57-.58.135-.263.204-.555.2-.85a1.848 1.848 0 00-.2-.86 1.594 1.594 0 00-.57-.58 1.64 1.64 0 00-.8-.2 1.671 1.671 0 00-.8.2c-.234.14-.427.34-.56.58-.14.265-.209.56-.2.86a1.7 1.7 0 00.2.85c.127.243.321.445.56.58.243.14.519.213.8.21.274 0 .543-.072.78-.21h.02zm3.18.43a1.918 1.918 0 01-.76-.76 2.12 2.12 0 01-.28-1.1 2.178 2.178 0 01.28-1.11c.179-.318.442-.58.76-.76a2.381 2.381 0 012.2 0c.318.18.581.442.76.76.186.34.282.722.28 1.11.004.385-.093.764-.28 1.1-.176.32-.439.584-.76.76a2.3 2.3 0 01-2.2 0zm1.9-.43c.241-.132.436-.335.56-.58.135-.263.204-.555.2-.85a1.848 1.848 0 00-.2-.86 1.42 1.42 0 00-.56-.58 1.7 1.7 0 00-1.6 0 1.42 1.42 0 00-.56.58c-.143.264-.215.56-.21.86-.005.297.067.59.21.85.124.245.319.448.56.58a1.63 1.63 0 001.6 0zm6.63.13v1.56h-.53v-1h-3.77v1h-.54V7h.24c.29 0 .48-.22.58-.62a9.5 9.5 0 00.21-1.68V3.29h3.11V7h.7zm-3.45-.79a1.201 1.201 0 01-.39.79h2.62V3.84h-2v.93c-.04.498-.117.993-.23 1.48v-.04zm7.27-2.5a1.61 1.61 0 01.44 1.22v2.61h-.55v-.66a1.29 1.29 0 01-.56.52 2 2 0 01-.88.18 1.68 1.68 0 01-1.12-.34 1.067 1.067 0 01-.42-.88 1.074 1.074 0 01.39-.87 1.88 1.88 0 011.23-.33h1.34v-.25a1.094 1.094 0 00-.3-.83 1.27 1.27 0 00-.89-.28 2.222 2.222 0 00-.77.13c-.231.08-.445.201-.63.36l-.26-.42c.227-.188.489-.331.77-.42.303-.1.621-.151.94-.15a1.83 1.83 0 011.27.41zm-.64 3.2c.234-.15.413-.37.51-.63v-.69h-1.32c-.72 0-1.08.25-1.08.75a.667.667 0 00.28.58c.231.152.504.225.78.21.292.01.581-.067.83-.22zm6.28-1.24h-.91v1.87h-.57V5.67h-.91l-1.29 1.87h-.68L158 5.37l-1.39-2h.61l1.24 1.85h.91V3.33h.57v1.85h.91l1.24-1.85h.61l-1.39 2.05 1.51 2.16h-.68l-1.29-1.87zm-62.36 7.26h.57v1.87h2.65v-1.87h.56v4.21h-.56v-1.86h-2.65v1.86h-.57v-4.21zm8.11.38a1.61 1.61 0 01.44 1.22v2.61h-.54v-.66a1.369 1.369 0 01-.57.52 2.001 2.001 0 01-.88.18 1.7 1.7 0 01-1.12-.34 1.067 1.067 0 01-.42-.88 1.074 1.074 0 01.39-.87 1.9 1.9 0 011.24-.33h1.33v-.25a1.094 1.094 0 00-.3-.83 1.25 1.25 0 00-.89-.28 2.154 2.154 0 00-1.4.49l-.26-.42a2.38 2.38 0 01.77-.42 2.999 2.999 0 011-.15 1.78 1.78 0 011.21.41zm-.64 3.2c.234-.15.413-.37.51-.63v-.69h-1.32c-.72 0-1.08.25-1.08.75a.7.7 0 00.28.58 1.3 1.3 0 00.79.21c.303.018.603-.06.86-.22h-.04zm12.48-4.97l-1.89 5.6h-.62l-1.64-4.78-1.65 4.78H112l-1.88-5.6h.61l1.61 4.82 1.66-4.82h.56l1.64 4.84 1.64-4.84h.6zm.93.35a.364.364 0 01-.091-.132.373.373 0 01-.029-.158c0-.053.011-.105.031-.154a.4.4 0 01.224-.212.386.386 0 01.155-.024.398.398 0 01.162.77.403.403 0 01-.162.03.4.4 0 01-.29-.12zm0 1h.56v4.21h-.56v-4.21zm2.16-1.68h.57v5.93h-.57v-5.93zm5.99 0v5.93H127v-.83a1.772 1.772 0 01-.68.65 2.002 2.002 0 01-1 .22 2.15 2.15 0 01-1.07-.27 2.006 2.006 0 01-.75-.76 2.443 2.443 0 010-2.23 1.93 1.93 0 01.75-.75 2.149 2.149 0 011.07-.27c.322-.004.641.068.93.21.275.143.506.357.67.62v-2.52h.6zm-1.32 5.26c.236-.138.43-.339.56-.58a1.848 1.848 0 00.04-1.75 1.483 1.483 0 00-1.36-.78 1.51 1.51 0 00-.8.2 1.42 1.42 0 00-.56.58c-.143.264-.215.56-.21.86-.005.297.067.59.21.85.124.246.319.448.56.58.242.143.519.215.8.21.264.008.525-.05.76-.17zm6.15-3.3a2 2 0 01.75.75 2.443 2.443 0 010 2.23c-.177.317-.436.58-.75.76a2.192 2.192 0 01-1.08.27 2.002 2.002 0 01-1-.22 1.815 1.815 0 01-.67-.65v.83h-.55v-5.93h.57v2.52a1.76 1.76 0 01.68-.62c.286-.142.601-.214.92-.21.394-.013.785.08 1.13.27zm-.32 3.3c.241-.135.439-.336.57-.58.135-.263.204-.555.2-.85a1.848 1.848 0 00-.2-.86 1.51 1.51 0 00-.57-.58 1.698 1.698 0 00-1.6 0c-.236.138-.43.339-.56.58-.143.264-.215.56-.21.86-.005.297.067.59.21.85.127.243.321.445.56.58a1.63 1.63 0 001.6 0zm6.16-1.26h-3.52a1.475 1.475 0 00.51 1.06 1.65 1.65 0 001.15.41c.247 0 .491-.047.72-.14.217-.095.411-.234.57-.41l.32.36a1.7 1.7 0 01-.7.51 2.339 2.339 0 01-.93.18 2.299 2.299 0 01-1.15-.28 1.88 1.88 0 01-.77-.76 2.124 2.124 0 01-.29-1.1 2.273 2.273 0 01.27-1.11 2 2 0 01.74-.76 2.181 2.181 0 012.1 0 2 2 0 01.73.76c.171.33.26.698.26 1.07l-.01.21zm-3.05-1.43c-.274.264-.442.62-.47 1h3a1.554 1.554 0 00-.47-1 1.54 1.54 0 00-2.05 0h-.01zm5.36-.66a2 2 0 011-.22v.55h-.13a1.358 1.358 0 00-1 .41 1.664 1.664 0 00-.37 1.15v2.14h-.57v-4.22h.54v.83c.107-.263.292-.486.53-.64zm3.14 0a2 2 0 011-.22v.55h-.13a1.358 1.358 0 00-1 .41 1.658 1.658 0 00-.38 1.15v2.14h-.57v-4.22h.55v.83c.103-.265.289-.49.53-.64zm2-1.23a.364.364 0 01-.091-.132.373.373 0 01-.029-.158.38.38 0 01.032-.152.401.401 0 01.388-.238.386.386 0 01.29.11.374.374 0 01.12.28.41.41 0 01-.41.41.403.403 0 01-.3-.12zm0 1h.57v4.21h-.57v-4.21zm5.82 2.32h-3.52a1.508 1.508 0 00.51 1.06 1.67 1.67 0 001.15.41c.247 0 .491-.047.72-.14.217-.095.411-.234.57-.41l.32.36a1.7 1.7 0 01-.7.51 2.339 2.339 0 01-.93.18 2.24 2.24 0 01-1.14-.28 1.852 1.852 0 01-.78-.76 2.12 2.12 0 01-.28-1.1 2.391 2.391 0 01.26-1.11 2 2 0 01.74-.76 2.181 2.181 0 012.1 0 2 2 0 01.73.76c.177.343.267.724.26 1.11l-.01.17zm-3.05-1.43c-.274.264-.441.62-.47 1h3a1.549 1.549 0 00-.47-1 1.54 1.54 0 00-2.05 0h-.01zm4.37 3.22a2.063 2.063 0 01-.73-.37l.25-.45c.202.15.429.266.67.34.267.09.548.133.83.13a1.49 1.49 0 00.85-.18.547.547 0 00.28-.5.465.465 0 00-.15-.37 1.005 1.005 0 00-.39-.2 6.184 6.184 0 00-.61-.13 5.636 5.636 0 01-.83-.2 1.158 1.158 0 01-.53-.34.919.919 0 01-.22-.66 1.002 1.002 0 01.44-.86 1.92 1.92 0 011.22-.34c.277.001.552.038.82.11.237.058.463.152.67.28l-.25.46a2.11 2.11 0 00-1.24-.36 1.44 1.44 0 00-.82.19.598.598 0 00-.27.5.521.521 0 00.15.39c.113.098.246.17.39.21.211.058.424.105.64.14.273.047.544.11.81.19.197.066.376.18.52.33a.94.94 0 01.22.64.993.993 0 01-.46.88 2.259 2.259 0 01-1.28.32 3.187 3.187 0 01-.98-.15z" fill="#696869"/></svg>