<svg width="46" height="46" viewBox="0 0 46 46" fill="none" xmlns="http://www.w3.org/2000/svg">
<g clip-path="url(#clip0)">
<path d="M29.3449 16.6658C28.7498 16.6658 28.2676 17.148 28.2676 17.7431V38.1037C28.2676 38.6983 28.7498 39.181 29.3449 39.181C29.9399 39.181 30.4221 38.6983 30.4221 38.1037V17.7431C30.4221 17.148 29.9399 16.6658 29.3449 16.6658Z" fill="#A8A8A8"/>
<path d="M16.6332 16.6658C16.0382 16.6658 15.5559 17.148 15.5559 17.7431V38.1037C15.5559 38.6983 16.0382 39.181 16.6332 39.181C17.2282 39.181 17.7105 38.6983 17.7105 38.1037V17.7431C17.7105 17.148 17.2282 16.6658 16.6332 16.6658Z" fill="#A8A8A8"/>
<path d="M7.36849 13.6944V40.2363C7.36849 41.8051 7.94374 43.2784 8.94864 44.3354C9.94891 45.3955 11.341 45.9972 12.7978 45.9998H33.1803C34.6376 45.9972 36.0296 45.3955 37.0295 44.3354C38.0344 43.2784 38.6096 41.8051 38.6096 40.2363V13.6944C40.6072 13.1642 41.9016 11.2343 41.6344 9.18455C41.3668 7.13519 39.6208 5.60217 37.5538 5.60175H32.0382V4.25515C32.0445 3.12275 31.5968 2.03537 30.7951 1.2354C29.9935 0.435859 28.9044 -0.00936047 27.772 -0.000102595H18.2061C17.0737 -0.00936047 15.9846 0.435859 15.183 1.2354C14.3813 2.03537 13.9336 3.12275 13.9399 4.25515V5.60175H8.42431C6.35728 5.60217 4.61133 7.13519 4.34369 9.18455C4.07647 11.2343 5.37089 13.1642 7.36849 13.6944ZM33.1803 43.8452H12.7978C10.9559 43.8452 9.52305 42.2629 9.52305 40.2363V13.7891H36.455V40.2363C36.455 42.2629 35.0222 43.8452 33.1803 43.8452ZM16.0945 4.25515C16.0873 3.69421 16.3078 3.15431 16.7059 2.75832C17.1036 2.36234 17.6447 2.14478 18.2061 2.15446H27.772C28.3334 2.14478 28.8745 2.36234 29.2722 2.75832C29.6703 3.15389 29.8908 3.69421 29.8836 4.25515V5.60175H16.0945V4.25515ZM8.42431 7.75631H37.5538C38.6248 7.75631 39.4929 8.62445 39.4929 9.69542C39.4929 10.7664 38.6248 11.6345 37.5538 11.6345H8.42431C7.35334 11.6345 6.4852 10.7664 6.4852 9.69542C6.4852 8.62445 7.35334 7.75631 8.42431 7.75631Z" fill="#A8A8A8"/>
<path d="M22.9891 16.6658C22.3941 16.6658 21.9119 17.148 21.9119 17.7431V38.1037C21.9119 38.6983 22.3941 39.181 22.9891 39.181C23.5842 39.181 24.0664 38.6983 24.0664 38.1037V17.7431C24.0664 17.148 23.5842 16.6658 22.9891 16.6658Z" fill="#A8A8A8"/>
</g>
<defs>
<clipPath id="clip0">
<rect width="46" height="46" fill="white"/>
</clipPath>
</defs>
</svg>
